<svg width="97" height="30" viewBox="0 0 97 30" fill="none" xmlns="http://www.w3.org/2000/svg">
<path d="M20.5859 29.4141H16.6602L6.36719 15.5273L3.32031 18.2617V29.4141H0V0.859375H3.32031V15.0977C4.0625 14.2513 4.82422 13.4115 5.60547 12.5781C6.38672 11.7318 7.16146 10.8789 7.92969 10.0195L16.2695 0.859375H20.1562L8.78906 13.2422L20.5859 29.4141ZM32.2461 7.61719C34.069 7.61719 35.6315 8.02083 36.9336 8.82812C38.2357 9.63542 39.2318 10.7682 39.9219 12.2266C40.612 13.6719 40.957 15.3646 40.957 17.3047V19.3164H26.1719C26.2109 21.8294 26.8359 23.7435 28.0469 25.0586C29.2578 26.3737 30.9635 27.0312 33.1641 27.0312C34.5182 27.0312 35.7161 26.9076 36.7578 26.6602C37.7995 26.4128 38.8802 26.0482 40 25.5664V28.418C38.9193 28.8997 37.8451 29.2513 36.7773 29.4727C35.7227 29.694 34.4727 29.8047 33.0273 29.8047C30.9701 29.8047 29.1732 29.388 27.6367 28.5547C26.1133 27.7083 24.9284 26.4714 24.082 24.8438C23.2357 23.2161 22.8125 21.224 22.8125 18.8672C22.8125 16.5625 23.1966 14.5703 23.9648 12.8906C24.7461 11.1979 25.8398 9.89583 27.2461 8.98438C28.6654 8.07292 30.332 7.61719 32.2461 7.61719ZM32.207 10.2734C30.4753 10.2734 29.0951 10.8398 28.0664 11.9727C27.0378 13.1055 26.4258 14.6875 26.2305 16.7188H37.5586C37.5456 15.4427 37.3438 14.3229 36.9531 13.3594C36.5755 12.3828 35.9961 11.6276 35.2148 11.0938C34.4336 10.5469 33.431 10.2734 32.207 10.2734ZM56.6016 7.61719C59.1406 7.61719 61.0612 8.24219 62.3633 9.49219C63.6654 10.7292 64.3164 12.7214 64.3164 15.4688V29.4141H61.1133V15.6836C61.1133 13.8997 60.7031 12.5651 59.8828 11.6797C59.0755 10.7943 57.832 10.3516 56.1523 10.3516C53.7826 10.3516 52.1159 11.0221 51.1523 12.3633C50.1888 13.7044 49.707 15.651 49.707 18.2031V29.4141H46.4648V8.00781H49.082L49.5703 11.0938H49.7461C50.2018 10.3385 50.7812 9.70703 51.4844 9.19922C52.1875 8.67839 52.9753 8.28776 53.8477 8.02734C54.7201 7.75391 55.638 7.61719 56.6016 7.61719ZM79.0039 7.65625C81.556 7.65625 83.4505 8.22917 84.6875 9.375C85.9245 10.5208 86.543 12.3503 86.543 14.8633V29.4141H84.1797L83.5547 26.25H83.3984C82.7995 27.0312 82.1745 27.6888 81.5234 28.2227C80.8724 28.7435 80.1172 29.1406 79.2578 29.4141C78.4115 29.6745 77.3698 29.8047 76.1328 29.8047C74.8307 29.8047 73.6719 29.5768 72.6562 29.1211C71.6536 28.6654 70.8594 27.9753 70.2734 27.0508C69.7005 26.1263 69.4141 24.9544 69.4141 23.5352C69.4141 21.3997 70.2604 19.7591 71.9531 18.6133C73.6458 17.4674 76.224 16.8424 79.6875 16.7383L83.3789 16.582V15.2734C83.3789 13.4245 82.9818 12.1289 82.1875 11.3867C81.3932 10.6445 80.2734 10.2734 78.8281 10.2734C77.7083 10.2734 76.6406 10.4362 75.625 10.7617C74.6094 11.0872 73.6458 11.4714 72.7344 11.9141L71.7383 9.45312C72.7018 8.95833 73.8086 8.53516 75.0586 8.18359C76.3086 7.83203 77.6237 7.65625 79.0039 7.65625ZM83.3398 18.8672L80.0781 19.0039C77.4089 19.1081 75.5273 19.5443 74.4336 20.3125C73.3398 21.0807 72.793 22.168 72.793 23.5742C72.793 24.7982 73.1641 25.7031 73.9062 26.2891C74.6484 26.875 75.6315 27.168 76.8555 27.168C78.7565 27.168 80.3125 26.6406 81.5234 25.5859C82.7344 24.5312 83.3398 22.9492 83.3398 20.8398V18.8672ZM96.4648 8.00781V29.4141H93.2227V8.00781H96.4648ZM94.8828 0C95.4167 0 95.8724 0.175781 96.25 0.527344C96.6406 0.865885 96.8359 1.39974 96.8359 2.12891C96.8359 2.84505 96.6406 3.37891 96.25 3.73047C95.8724 4.08203 95.4167 4.25781 94.8828 4.25781C94.3229 4.25781 93.8542 4.08203 93.4766 3.73047C93.112 3.37891 92.9297 2.84505 92.9297 2.12891C92.9297 1.39974 93.112 0.865885 93.4766 0.527344C93.8542 0.175781 94.3229 0 94.8828 0Z" fill="url(#paint0_linear_268485_3168)"/>
<defs>
<linearGradient id="paint0_linear_268485_3168" x1="100.094" y1="-13.5859" x2="-11.3565" y2="7.98844" gradientUnits="userSpaceOnUse">
<stop stop-color="#FF267A"/>
<stop offset="1" stop-color="#FFA634"/>
</linearGradient>
</defs>
</svg>
